# xmcd
#
# Track frame offsets:
# 150
# 26097
# 49887
# 71492
# 87995
# 106715
# 125320
# 147187
# 171855
# 195635
# 211890
# 229295
# 246602
# 258017
# 280427
# 292980
#
# Disc length: 4228 seconds
#
# Revision: 7
# Processed by: cddbd v1.4PL0 Copyright (c) Steve Scherf et al.
# Submitted via: Axialis_AX_CDPlayer 2.6
#
DISCID=ed108210
DTITLE=La Ley - MTV Unplugged
DYEAR=2001
DGENRE=
TTITLE0=Animal
TTITLE1=Día Cero
TTITLE2=Mentira
TTITLE3=Prisioneros De La Piel
TTITLE4=Hombre
TTITLE5=Krazyworld
TTITLE6=Intenta Amar
TTITLE7=El Duelo (Dúo Con Ely Guerra)
TTITLE8=The Corridor
TTITLE9=Aquí
TTITLE10=Delirando
TTITLE11=Cielo Market
TTITLE12=La Luna
TTITLE13=Fuera De Mí
TTITLE14=Paraíso
TTITLE15=Al Final
EXTD=Micho Music Factory Corps.\nmicho38@latinmail.com YEAR: 2001
EXTT0=
EXTT1=
EXTT2=
EXTT3=
EXTT4=
EXTT5=
EXTT6=
EXTT7=
EXTT8=
EXTT9=
EXTT10=
EXTT11=
EXTT12=
EXTT13=
EXTT14=
EXTT15=
PLAYORDER=
